# xmcd CD database file generated by MAGIX-FreeDB- v3.0beta1
#
# Track frame offsets:
#	182
#	12637
#	31560
#	50757
#	73272
#	87615
#	99175
#	111765
#	123697
#	136745
#	155775
#	168417
#
# Disc length: 2634
#
# Revision: 32
# Processed by: cddbd v1.5.2PL0 Copyright (c) Steve Scherf et al.
# Submitted via: MAGIX-FreeDB- v3.0beta1
#
DISCID=a50a480c
DTITLE=Cream - Strange brew: The very best of
DYEAR=1983
DGENRE=Rock
TTITLE0=Badge
TTITLE1=Sunshine of your love
TTITLE2=Crossroads (Cross road blues)
TTITLE3=White room
TTITLE4=Born under a bad sign
TTITLE5=SWLABR
TTITLE6=Strange brew
TTITLE7=Anyone for tennis
TTITLE8=I feel free
TTITLE9=Politician
TTITLE10=Tales of brave Ulysses
TTITLE11=Spoonful
EXTD=
EXTT0=
EXTT1=
EXTT2=
EXTT3=
EXTT4=
EXTT5=
EXTT6=
EXTT7=
EXTT8=
EXTT9=
EXTT10=
EXTT11=
PLAYORDER=
